<svg xmlns="http://www.w3.org/2000/svg" xmlns:xlink="http://www.w3.org/1999/xlink" fill="none" version="1.1" width="110"
     height="29" viewBox="0 0 110 29">
    <defs>
        <clipPath id="master_svg0_830_0394">
            <rect x="0" y="0" width="30" height="29" rx="0"/>
        </clipPath>
    </defs>
    <g>
        <g clip-path="url(#master_svg0_830_0394)">
            <g>
                <path d="M17.684,28.1702C14.0979,28.1702,10.8709,26.5592,8.62008,23.825C7.93112,22.8277,7.52896,21.6375,7.52896,20.3574C7.52896,19.4985,7.71266,18.6814,8.03977,17.9344C8.11795,17.8863,8.20981,17.8572,8.30965,17.8572C8.53761,17.8572,8.72849,18.0025,8.79475,18.2022L8.82985,18.1968C10.4412,20.5483,13.0029,22.0698,15.8891,22.0698C20.7666,22.0698,24.7205,17.7275,24.7205,12.3711C24.7205,9.76525,23.7825,7.40187,22.2599,5.65933L22.251,5.71825Q20.5194,3.55614,18.417,2.72619Q16.7761,2.27036,17.6062,2.0472200000000003C20.1522,2.68787,21.2399,3.56892,21.9657,4.12774C22.6151,4.62776,22.3558,3.99183,22.251,3.88849C20.3024,2.1580399999999997,18.5314,1.773564,17.027,1.356746Q15.1835,1.0764127000000001,16.1004,1C18.9584,1.00437302,20.7561,1.90671,21.8919,2.39246Q22.8753,3.00629,22.1351,2.38095C21.3075,1.653996,19.469,1.416587,20.0502,1.230159Q20.8399,1.0437302,22.1351,1.586905L22.5587,1.880817C22.5581,1.8743729999999998,22.5579,1.867353,22.5573,1.860909C26.9349,3.97193,30,8.83829,30,14.5063C30,22.1099,24.4859,28.1702,17.684,28.1702ZM21.3799,7.1175C22.0689,8.11478,22.471,9.30493,22.471,10.58508C22.471,11.4439,22.2873,12.2611,21.9602,13.0081C21.882,13.0562,21.7902,13.0853,21.6903,13.0853C21.4624,13.0853,21.2715,12.9399,21.2052,12.7403L21.1702,12.7457C19.5588,10.39416,16.997,8.87269,14.1109,8.87269C9.2334,8.87269,5.27954,13.215,5.27954,18.5714C5.27954,21.1772,6.21753,23.5406,7.74012,25.2831L7.64479,25.2242Q9.48058,27.3863,11.583,28.2163Q13.2239,28.6721,12.2896,28.7917C9.84776,28.2546,8.76011,27.3735,8.03432,26.8147C7.38486,26.3147,7.64421,26.9506,7.64479,26.9504C9.69764,28.7844,11.4686,29.1689,12.973,29.4821Q14.8165,29.866,13.7954,29.9425C11.0416,29.9381,9.24394,29.0358,8.10811,28.4464Q7.12471,27.9362,7.76062,28.5615C8.69247,29.2885,10.531,29.5259,9.84556,29.7123Q9.16008,29.8987,7.76062,29.252L7.44127,29.0616C7.44185,29.0681,7.44208,29.0751,7.44266,29.0816C3.0651,26.9705,0,22.1042,0,16.4362C0,8.83253,5.51409,2.66865,12.316,2.66865C15.9021,2.66865,19.1291,4.38322,21.3799,7.1175Z"
                      fill-rule="evenodd" fill="#1F948C" fill-opacity="1"/>
            </g>
        </g>
        <g>
            <path d="M45.846000000000004,10.984Q45.846000000000004,11.074,45.783,11.137Q45.72,11.2,45.63,11.2L39.492,11.2Q39.402,11.2,39.402,11.29L39.402,14.656Q39.402,14.746,39.492,14.746L43.614,14.746Q43.704,14.746,43.767,14.809Q43.83,14.872,43.83,14.962L43.83,16.33Q43.83,16.42,43.767,16.483Q43.704,16.546,43.614,16.546L39.492,16.546Q39.402,16.546,39.402,16.636L39.402,20.11Q39.402,20.2,39.492,20.2L45.63,20.2Q45.72,20.2,45.783,20.263Q45.846000000000004,20.326,45.846000000000004,20.416L45.846000000000004,21.784Q45.846000000000004,21.874,45.783,21.937Q45.72,22,45.63,22L37.53,22Q37.44,22,37.377,21.937Q37.314,21.874,37.314,21.784L37.314,9.616Q37.314,9.526,37.377,9.463000000000001Q37.44,9.4,37.53,9.4L45.63,9.4Q45.72,9.4,45.783,9.463000000000001Q45.846000000000004,9.526,45.846000000000004,9.616L45.846000000000004,10.984ZM51.282,12.658Q52.416,12.658,53.28,13.054Q54.144,13.45,54.611999999999995,14.143Q55.08,14.836,55.08,15.718L55.08,21.784Q55.08,21.874,55.016999999999996,21.937Q54.954,22,54.864000000000004,22L53.208,22Q53.117999999999995,22,53.055,21.937Q52.992000000000004,21.874,52.992000000000004,21.784L52.992000000000004,21.208Q52.992000000000004,21.154,52.956,21.145Q52.92,21.136,52.884,21.172Q52.001999999999995,22.144,50.328,22.144Q48.978,22.144,48.105000000000004,21.46Q47.232,20.776,47.232,19.426000000000002Q47.232,18.022,48.213,17.239Q49.194,16.456,50.976,16.456L52.902,16.456Q52.992000000000004,16.456,52.992000000000004,16.366L52.992000000000004,15.934Q52.992000000000004,15.232,52.578,14.845Q52.164,14.458,51.336,14.458Q50.652,14.458,50.229,14.701Q49.806,14.944,49.698,15.376Q49.644,15.592,49.446,15.556L47.7,15.34Q47.61,15.322,47.547,15.277Q47.484,15.232,47.502,15.16Q47.646,14.062,48.681,13.36Q49.716,12.658,51.282,12.658ZM50.85,20.488Q51.732,20.488,52.361999999999995,20.02Q52.992000000000004,19.552,52.992000000000004,18.832L52.992000000000004,17.986Q52.992000000000004,17.896,52.902,17.896L51.39,17.896Q50.436,17.896,49.887,18.256Q49.338,18.616,49.338,19.282Q49.338,19.858,49.760999999999996,20.173Q50.184,20.488,50.85,20.488ZM60.588,22.108Q59.454,22.108,58.599000000000004,21.775Q57.744,21.442,57.275999999999996,20.857Q56.808,20.272,56.808,19.552L56.808,19.39Q56.808,19.3,56.870999999999995,19.237000000000002Q56.934,19.174,57.024,19.174L58.608000000000004,19.174Q58.698,19.174,58.760999999999996,19.237000000000002Q58.824,19.3,58.824,19.39L58.824,19.426000000000002Q58.824,19.875999999999998,59.319,20.209Q59.814,20.542,60.57,20.542Q61.29,20.542,61.739999999999995,20.245Q62.19,19.948,62.19,19.497999999999998Q62.19,19.084,61.821,18.877000000000002Q61.452,18.67,60.623999999999995,18.436L59.94,18.22Q59.022,17.95,58.391999999999996,17.644Q57.762,17.338,57.33,16.807000000000002Q56.897999999999996,16.276,56.897999999999996,15.448Q56.897999999999996,14.188,57.888000000000005,13.441Q58.878,12.694,60.498000000000005,12.694Q61.596000000000004,12.694,62.424,13.045Q63.251999999999995,13.396,63.702,14.017Q64.152,14.638,64.152,15.43Q64.152,15.52,64.089,15.583Q64.026,15.646,63.936,15.646L62.406,15.646Q62.316,15.646,62.253,15.583Q62.19,15.52,62.19,15.43Q62.19,14.962,61.731,14.647Q61.272,14.332,60.480000000000004,14.332Q59.778,14.332,59.337,14.593Q58.896,14.854,58.896,15.322Q58.896,15.754,59.319,15.979Q59.742000000000004,16.204,60.732,16.474L61.128,16.582Q62.082,16.869999999999997,62.730000000000004,17.167Q63.378,17.464,63.828,17.994999999999997Q64.27799999999999,18.526,64.27799999999999,19.372Q64.27799999999999,20.65,63.269999999999996,21.379Q62.262,22.108,60.588,22.108ZM65.25,25.582Q65.196,25.582,65.16,25.519Q65.124,25.456,65.124,25.366L65.124,24.07Q65.124,23.98,65.187,23.917Q65.25,23.854,65.34,23.854L65.358,23.854Q66.096,23.836,66.51,23.701Q66.924,23.566,67.194,23.188Q67.464,22.81,67.68,22.054Q67.69800000000001,22.018,67.68,21.946L64.71000000000001,13.036Q64.69200000000001,13,64.69200000000001,12.946Q64.69200000000001,12.784,64.872,12.784L66.636,12.784Q66.834,12.784,66.888,12.964L68.688,19.3Q68.706,19.354,68.74199999999999,19.354Q68.77799999999999,19.354,68.79599999999999,19.3L70.596,12.964Q70.65,12.784,70.848,12.784L72.55799999999999,12.784Q72.666,12.784,72.711,12.847Q72.756,12.91,72.72,13.036L69.55199999999999,22.504Q69.102,23.782,68.67,24.412Q68.238,25.042,67.491,25.312Q66.744,25.582,65.376,25.582L65.25,25.582ZM78.642,22.144Q77.292,22.144,76.26599999999999,21.613Q75.24000000000001,21.082,74.682,20.128Q74.124,19.174,74.124,17.914L74.124,13.468Q74.124,12.208,74.682,11.254Q75.24000000000001,10.3,76.26599999999999,9.777999999999999Q77.292,9.256,78.642,9.256Q79.97399999999999,9.256,81,9.76Q82.02600000000001,10.264,82.584,11.182Q83.142,12.1,83.142,13.306Q83.142,13.396,83.07900000000001,13.459Q83.01599999999999,13.522,82.926,13.522L81.27000000000001,13.612Q81.054,13.612,81.054,13.414Q81.054,12.352,80.39699999999999,11.704Q79.74000000000001,11.056000000000001,78.642,11.056000000000001Q77.544,11.056000000000001,76.878,11.704Q76.212,12.352,76.212,13.414L76.212,18.003999999999998Q76.212,19.048000000000002,76.878,19.695999999999998Q77.544,20.344,78.642,20.344Q79.74000000000001,20.344,80.39699999999999,19.705Q81.054,19.066000000000003,81.054,18.003999999999998Q81.054,17.805999999999997,81.27000000000001,17.805999999999997L82.926,17.878Q83.01599999999999,17.878,83.07900000000001,17.932000000000002Q83.142,17.986,83.142,18.058Q83.142,19.282,82.584,20.209Q82.02600000000001,21.136,81,21.64Q79.97399999999999,22.144,78.642,22.144ZM89.586,12.658Q91.044,12.658,91.917,13.522Q92.78999999999999,14.386,92.78999999999999,15.88L92.78999999999999,21.784Q92.78999999999999,21.874,92.727,21.937Q92.664,22,92.574,22L90.918,22Q90.828,22,90.765,21.937Q90.702,21.874,90.702,21.784L90.702,16.311999999999998Q90.702,15.484,90.23400000000001,14.971Q89.76599999999999,14.458,88.99199999999999,14.458Q88.218,14.458,87.741,14.962Q87.26400000000001,15.466,87.26400000000001,16.294L87.26400000000001,21.784Q87.26400000000001,21.874,87.201,21.937Q87.138,22,87.048,22L85.392,22Q85.30199999999999,22,85.239,21.937Q85.176,21.874,85.176,21.784L85.176,9.616Q85.176,9.526,85.239,9.463000000000001Q85.30199999999999,9.4,85.392,9.4L87.048,9.4Q87.138,9.4,87.201,9.463000000000001Q87.26400000000001,9.526,87.26400000000001,9.616L87.26400000000001,13.594Q87.26400000000001,13.648,87.3,13.666Q87.336,13.684,87.354,13.63Q88.092,12.658,89.586,12.658ZM98.47800000000001,12.658Q99.612,12.658,100.476,13.054Q101.34,13.45,101.808,14.143Q102.276,14.836,102.276,15.718L102.276,21.784Q102.276,21.874,102.213,21.937Q102.15,22,102.06,22L100.404,22Q100.314,22,100.251,21.937Q100.188,21.874,100.188,21.784L100.188,21.208Q100.188,21.154,100.152,21.145Q100.116,21.136,100.08,21.172Q99.19800000000001,22.144,97.524,22.144Q96.174,22.144,95.301,21.46Q94.428,20.776,94.428,19.426000000000002Q94.428,18.022,95.40899999999999,17.239Q96.39,16.456,98.172,16.456L100.098,16.456Q100.188,16.456,100.188,16.366L100.188,15.934Q100.188,15.232,99.774,14.845Q99.36,14.458,98.532,14.458Q97.848,14.458,97.425,14.701Q97.00200000000001,14.944,96.894,15.376Q96.84,15.592,96.642,15.556L94.896,15.34Q94.806,15.322,94.743,15.277Q94.68,15.232,94.69800000000001,15.16Q94.842,14.062,95.87700000000001,13.36Q96.912,12.658,98.47800000000001,12.658ZM98.04599999999999,20.488Q98.928,20.488,99.55799999999999,20.02Q100.188,19.552,100.188,18.832L100.188,17.986Q100.188,17.896,100.098,17.896L98.586,17.896Q97.632,17.896,97.083,18.256Q96.53399999999999,18.616,96.53399999999999,19.282Q96.53399999999999,19.858,96.957,20.173Q97.38,20.488,98.04599999999999,20.488ZM109.098,14.278Q109.098,14.368,109.035,14.431Q108.972,14.494,108.882,14.494L107.046,14.494Q106.956,14.494,106.956,14.584L106.956,18.922Q106.956,19.606,107.253,19.912Q107.55,20.218,108.198,20.218L108.738,20.218Q108.828,20.218,108.891,20.281Q108.954,20.344,108.954,20.434L108.954,21.784Q108.954,21.982,108.738,22.018L107.802,22.036Q106.38,22.036,105.678,21.55Q104.976,21.064,104.958,19.714L104.958,14.584Q104.958,14.494,104.868,14.494L103.842,14.494Q103.752,14.494,103.689,14.431Q103.626,14.368,103.626,14.278L103.626,13.018Q103.626,12.928,103.689,12.865Q103.752,12.802,103.842,12.802L104.868,12.802Q104.958,12.802,104.958,12.712L104.958,10.606Q104.958,10.516,105.021,10.453Q105.084,10.39,105.174,10.39L106.74,10.39Q106.83,10.39,106.893,10.453Q106.956,10.516,106.956,10.606L106.956,12.712Q106.956,12.802,107.046,12.802L108.882,12.802Q108.972,12.802,109.035,12.865Q109.098,12.928,109.098,13.018L109.098,14.278Z"
                  fill="#333333" fill-opacity="1"/>
        </g>
    </g>
</svg>